<svg width="32" height="32" viewBox="0 0 32 32" fill="none" xmlns="http://www.w3.org/2000/svg">
  <!-- Background circle with gradient -->
  <defs>
    <linearGradient id="grad1" x1="0%" y1="0%" x2="100%" y2="100%">
      <stop offset="0%" style="stop-color:#3B82F6;stop-opacity:1" />
      <stop offset="100%" style="stop-color:#8B5CF6;stop-opacity:1" />
    </linearGradient>
    <linearGradient id="grad2" x1="0%" y1="0%" x2="100%" y2="100%">
      <stop offset="0%" style="stop-color:#60A5FA;stop-opacity:1" />
      <stop offset="100%" style="stop-color:#A78BFA;stop-opacity:1" />
    </linearGradient>
  </defs>
  
  <!-- Main background circle -->
  <circle cx="16" cy="16" r="15" fill="url(#grad1)" stroke="url(#grad2)" stroke-width="2"/>
  
  <!-- Camera body -->
  <rect x="8" y="12" width="16" height="10" rx="2" fill="white" opacity="0.9"/>
  
  <!-- Camera lens -->
  <circle cx="16" cy="17" r="3" fill="url(#grad2)" stroke="white" stroke-width="1"/>
  <circle cx="16" cy="17" r="1.5" fill="white"/>
  
  <!-- Code brackets -->
  <path d="M6 8 L10 8 L10 10 L8 10 L8 24 L10 24 L10 26 L6 26 Z" fill="white" opacity="0.8"/>
  <path d="M26 8 L22 8 L22 10 L24 10 L24 24 L22 24 L22 26 L26 26 Z" fill="white" opacity="0.8"/>
  
  <!-- Code lines -->
  <rect x="12" y="20" width="8" height="1" rx="0.5" fill="white" opacity="0.7"/>
  <rect x="12" y="22" width="6" height="1" rx="0.5" fill="white" opacity="0.7"/>
  <rect x="12" y="24" width="7" height="1" rx="0.5" fill="white" opacity="0.7"/>
  
  <!-- Small decorative dots -->
  <circle cx="20" cy="9" r="1" fill="white" opacity="0.6"/>
  <circle cx="12" cy="9" r="1" fill="white" opacity="0.6"/>
</svg>
